<svg width="66" height="66" viewBox="0 0 66 66" fill="none" xmlns="http://www.w3.org/2000/svg">
<g clip-path="url(#clip0_55_40)">
<path d="M65.8581 40.3425C65.8652 37.5466 65.8729 34.6547 65.8565 31.8107C65.8421 29.2174 65.7507 26.5833 65.6623 24.0357L65.6056 22.3898C65.5849 21.7667 65.5682 21.1431 65.5511 20.5199C65.4965 18.508 65.442 16.4276 65.2407 14.3909C65.034 12.3265 64.6461 10.2846 64.0816 8.28925C62.5033 2.69958 57.2411 0.16626 52.9914 0.16626H52.9265C45.4205 0.212185 37.7901 0.423451 30.4131 0.627501C27.8323 0.69882 25.2519 0.767825 22.6715 0.834557L21.2064 0.870543C18.3008 0.940393 15.2961 1.01269 12.3455 1.19832C7.01421 1.53354 3.4723 3.7251 1.51821 7.89795C0.949099 9.11328 0.615319 10.4269 0.534769 11.7685C0.0381317 21.592 0.260393 31.5769 0.475574 41.2327C0.503392 42.4796 0.530678 43.725 0.557406 44.9694L0.576216 45.8577C0.63267 48.5114 0.691309 51.2554 0.708218 53.9531C0.742855 59.5081 5.51503 64.7279 10.9205 65.1214C12.111 65.1858 13.3041 65.1844 14.4946 65.1176C15.289 65.0876 16.1116 65.0546 16.9128 65.067C20.488 65.1165 24.123 65.1871 27.6384 65.2551C29.6411 65.2936 31.6437 65.3312 33.6463 65.3678C35.0828 65.3931 36.5198 65.4159 37.9576 65.4368C40.4754 65.4751 43.0786 65.5144 45.6381 65.5743C46.0887 65.5999 46.5362 65.6676 46.9745 65.7765C47.1927 65.8227 47.4084 65.8691 47.6258 65.9068C47.6413 65.9096 47.6571 65.9107 47.673 65.9107H50.4635C50.4771 65.9107 50.4908 65.9098 50.5044 65.9079C51.0771 65.8224 51.6521 65.7468 52.2267 65.6714C53.4739 65.5064 54.7631 65.3384 56.0141 65.0637C61.5387 63.8501 65.9686 58.0787 65.8914 52.1981C65.8385 48.2477 65.8486 44.2294 65.8581 40.3425ZM62.2036 46.5468C62.2091 48.545 62.2137 50.5434 62.2178 52.5418C62.2241 56.2422 59.2137 60.3403 55.7754 61.3113C53.706 61.9256 51.5656 62.2636 49.4091 62.3164C46.3909 62.3439 43.3887 62.2092 40.2103 62.0692C38.9593 62.0142 37.6873 61.957 36.3867 61.9094L36.693 37.6203C37.233 37.6052 37.7607 37.5928 38.2789 37.5785C39.7674 37.54 41.1733 37.5037 42.5831 37.4482C43.3388 37.4251 44.0915 37.345 44.8355 37.2089C45.8841 37.0087 46.4661 36.324 46.3922 35.378C46.3159 34.3998 45.6248 33.7926 44.5884 33.7926H44.5857C43.7383 33.7926 42.8803 33.8393 42.0493 33.8839C41.7308 33.9009 41.412 33.9183 41.0931 33.9328C40.0892 33.9793 39.0853 34.0272 38.0411 34.0775L36.8411 34.1352C36.837 33.6221 36.8312 33.1098 36.8239 32.5988C36.7652 28.0954 36.7099 23.8418 38.3511 19.7141C39.7148 16.2846 43.296 14.6156 46.6819 15.8331C47.3741 16.1151 48.0316 16.4767 48.6417 16.9105C49.0767 17.1938 49.5267 17.488 49.9961 17.7292C50.3143 17.8942 51.1281 18.2577 51.8102 18.0866C52.5881 17.8941 52.9262 17.1382 52.6931 16.1136C52.5281 15.4092 52.2133 14.7493 51.7707 14.1796C51.3281 13.6098 50.7681 13.1438 50.1294 12.8136C48.753 12.0401 47.2306 11.5676 45.6611 11.4267C44.0918 11.2859 42.5105 11.48 41.0203 11.9962C38.2251 12.9884 36.0294 15.1402 34.8346 18.0552C33.7802 20.6528 33.2083 23.4236 33.147 26.2296C33.0981 28.1067 33.1093 29.9616 33.1213 31.9253C33.126 32.7121 33.1306 33.5099 33.1314 34.3225L32.2631 34.3959C31.4012 34.4694 30.5869 34.5387 29.7848 34.5942C29.4848 34.6151 29.1761 34.6157 28.8766 34.6162C28.6715 34.6162 28.4661 34.6162 28.2616 34.6231C26.8063 34.6676 26.4692 35.4756 26.4428 36.1471C26.404 37.1237 27.0553 37.7355 28.1844 37.7834C29.0983 37.8222 30.0242 37.7982 30.9199 37.7754C31.3137 37.7652 31.7072 37.7548 32.1008 37.7498C32.3116 37.7468 32.5227 37.7482 32.7714 37.7487H32.9171L33.1513 61.6223H32.7071C32.0798 61.6223 31.3931 61.6223 30.7061 61.6223C28.9911 61.6242 27.2757 61.6215 25.5597 61.6141C21.7115 61.6028 17.7324 61.5915 13.8193 61.6594C10.8842 61.6999 8.42175 60.8534 6.72594 59.1795C4.94284 57.4195 3.99375 54.7765 3.98148 51.5383L3.96675 47.6295C3.92748 37.339 3.88657 26.6979 3.90048 16.2325C3.86854 13.7895 4.44784 11.3777 5.58484 9.22004C6.6163 7.30906 8.13948 6.11834 9.98966 5.77624C12.9163 5.23504 15.7794 4.74276 18.6318 4.66521C27.6182 4.42019 39.4483 4.13666 51.2615 4.11521H51.2937C56.8123 4.11521 60.072 6.73484 60.9821 11.9021C61.6172 15.5068 62.2911 19.7105 62.2451 23.9824C62.1624 31.5051 62.1831 39.1523 62.2031 46.5476L62.2036 46.5468Z" fill="#F5CBD7"/>
</g>
<defs>
<clipPath id="clip0_55_40">
<rect width="66" height="66" fill="white"/>
</clipPath>
</defs>
</svg>
