<svg width="66" height="66" viewBox="0 0 66 66" fill="none" xmlns="http://www.w3.org/2000/svg">
<g clip-path="url(#clip0_55_47)">
<path d="M64.6257 10.8399C63.6636 2.87355 57.0149 -0.324219 50.8547 0.0436885C47.199 0.259961 43.5785 0.375108 39.2671 0.481744C35.3609 0.578289 31.3552 0.661204 27.8212 0.734295C22.7501 0.839568 17.5064 0.948623 12.2994 1.09371C6.32154 1.26062 1.50139 5.14313 0.57441 10.5355C0.202214 12.6999 0.191379 14.8838 0.214371 17.3092C0.281725 24.3919 0.384512 31.5487 0.484864 38.47L0.495692 39.2195C0.535365 42.0037 0.574286 44.7883 0.612515 47.5728C0.619006 48.0419 0.635236 48.5121 0.652006 48.9823L0.653391 49.0199C0.721406 50.185 0.70994 51.3534 0.619052 52.5168C0.297438 55.624 1.47705 58.9368 3.77489 61.3783C6.32914 64.0922 9.94908 65.4719 13.9707 65.2652C18.3592 65.0361 22.8356 65.0797 27.1645 65.1217L27.478 65.125C32.6152 65.1744 37.8394 65.3061 42.8984 65.4343L45.4492 65.4986C45.8787 65.5246 46.305 65.5895 46.7227 65.6934C46.9418 65.7403 47.1609 65.7866 47.3791 65.8246C47.4105 65.83 47.4424 65.833 47.4741 65.833H50.242C50.2693 65.8327 50.2964 65.8308 50.3232 65.827C50.8763 65.7452 51.4322 65.671 51.9862 65.5979L52.0278 65.5925C53.2699 65.4288 54.5542 65.2603 55.806 64.9862C61.2061 63.8034 65.7812 58.1563 65.7964 52.6551C65.8002 51.3591 65.8048 50.0626 65.8099 48.766L65.8123 48.115C65.8394 41.0088 65.8691 33.6607 65.7177 26.4252C65.607 21.1635 65.2397 15.9186 64.6257 10.8399ZM61.6232 52.2719C61.6397 56.5207 57.964 60.4987 53.255 61.3281C49.6469 61.9636 45.9588 61.7476 42.3915 61.5395C41.0675 61.462 39.6983 61.3818 38.3377 61.3456C36.7932 61.3047 35.22 61.2242 33.6901 61.1459L33.5548 61.1388C32.8965 61.1053 32.2375 61.0717 31.584 61.0417H31.5537C29.8891 61.0417 28.2245 61.0398 26.5597 61.0355C24.6276 61.0322 22.6646 61.0289 20.6936 61.0289C18.1009 61.0289 15.9694 61.0344 13.984 61.0464H13.8967C10.9845 61.0464 8.58234 60.1756 6.94965 58.5272C5.25204 56.8134 4.36618 54.2536 4.38863 51.1237C4.44111 43.7647 4.40943 36.3144 4.3786 29.1089C4.36128 24.9952 4.34346 20.7415 4.3413 16.5385C4.30064 14.118 4.84363 11.7236 5.92362 9.56137C7.14841 7.18646 9.3362 5.92619 12.8082 5.59537C17.6803 5.13173 21.6117 4.87916 25.1803 4.80089C35.4826 4.57343 43.4113 4.49298 50.8874 4.53961C56.3408 4.57371 59.4904 7.16025 60.5169 12.4487C61.653 18.3096 61.6368 24.3337 61.6197 30.1625L61.6181 30.6567C61.5951 38.923 61.5965 45.7908 61.6227 52.2719H61.6232Z" fill="#F5CBD7"/>
<path d="M34.3998 17.3996C30.9819 17.3352 27.9402 18.0356 25.3551 19.4723C22.2418 21.2014 18.9255 23.536 17.9331 27.734C16.6569 33.131 17.2374 38.3237 19.6583 43.1679C21.3916 46.637 24.1087 48.7716 27.5158 49.3405C29.5545 49.6995 31.6189 49.8879 33.6884 49.9043C34.3376 49.9043 34.9817 49.8814 35.6 49.8364C40.1873 49.5028 43.8311 47.6485 46.4302 44.3245C50.4549 39.1774 51.1546 33.2843 48.5109 26.8089C45.9544 20.5468 41.0642 17.2918 34.3998 17.3996ZM45.5874 33.9465C45.6071 40.9828 40.9279 45.6819 33.6657 45.9154C31.8183 45.947 29.9727 45.7845 28.1585 45.4307C25.8366 45.0105 24.074 43.6015 22.9188 41.2433C20.9921 37.3081 20.5247 33.2406 21.529 29.1538C22.3029 26.005 24.5834 23.6955 28.5004 22.0932C29.9559 21.5031 31.5115 21.2034 33.0804 21.2107C34.4393 21.2172 35.7907 21.4178 37.0939 21.8066C42.2368 23.3156 45.5706 28.0806 45.5874 33.9465Z" fill="#F5CBD7"/>
<path d="M52.0048 10.5479H51.9271C51.1668 10.5671 50.4427 10.8796 49.9041 11.4212C49.3658 11.9627 49.0537 12.692 49.0329 13.4585C49.0139 13.8321 49.0705 14.2056 49.1989 14.5566C49.3274 14.9076 49.5249 15.2287 49.7797 15.5006C50.0456 15.7736 50.364 15.9893 50.7151 16.1346C51.0664 16.28 51.443 16.3519 51.8227 16.3461C52.5714 16.3217 53.2823 16.008 53.8079 15.4698C54.3337 14.9317 54.6339 14.2104 54.6469 13.4552C54.6713 11.9481 53.4365 10.5899 52.0048 10.5479Z" fill="#F5CBD7"/>
</g>
<defs>
<clipPath id="clip0_55_47">
<rect width="66" height="66" fill="white"/>
</clipPath>
</defs>
</svg>
