<svg width="72" height="52" viewBox="0 0 72 52" fill="none" xmlns="http://www.w3.org/2000/svg">
<path d="M49.2436 3.16131C55.3543 3.16131 59.99 4.32023 63.1507 6.63808C66.3535 8.95592 67.9549 12.4748 67.9549 17.1948C67.9549 20.1869 67.5335 22.568 66.6906 24.338C65.8478 26.108 64.4992 27.4144 62.6449 28.2572V28.8894C64.5414 29.8587 66.0374 31.3337 67.1331 33.3144C68.271 35.2951 68.8399 37.4865 68.8399 39.8886C68.8399 41.49 68.6292 42.8597 68.2078 43.9975C67.7863 45.0932 67.1753 45.9993 66.3746 46.7157C65.616 47.39 64.7099 47.8746 63.6564 48.1696C62.6028 48.5068 61.4439 48.6754 60.1796 48.6754C58.1989 48.6754 56.6185 48.3803 55.4386 47.7904C54.3007 47.1582 53.4157 46.3575 52.7836 45.3882C52.1936 44.4189 51.8143 43.3443 51.6457 42.1643C51.4771 40.9422 51.3929 39.7411 51.3929 38.5611C51.3929 37.6761 51.4139 36.8333 51.4561 36.0326C51.4982 35.2319 51.4982 34.5365 51.4561 33.9465C51.4139 33.3144 51.3086 32.8297 51.14 32.4926C50.9714 32.1133 50.6975 31.9237 50.3182 31.9237C49.7704 31.9237 49.37 32.1976 49.1172 32.7454C48.8643 33.2933 48.6957 34.0308 48.6115 34.9579C48.5693 35.8429 48.5482 36.8543 48.5482 37.9922C48.5904 39.13 48.6115 40.2679 48.6115 41.4057C48.6115 42.7965 48.4007 43.9764 47.9793 44.9457C47.5579 45.8729 46.989 46.6104 46.2725 47.1582C45.5561 47.7061 44.7133 48.0854 43.744 48.2961C42.7747 48.5489 41.7422 48.6754 40.6465 48.6754C38.4551 48.6754 36.6851 48.0011 35.3365 46.6525C34.0301 45.3039 33.1662 43.555 32.7447 41.4057C32.4076 39.6779 32.1337 37.5918 31.923 35.1476C31.7544 32.6612 31.649 30.0904 31.6069 27.4355C31.5648 24.7383 31.6069 22.0834 31.7333 19.4705C31.8598 16.8577 32.0705 14.5398 32.3655 12.517C32.6183 10.8313 33.0819 9.39842 33.7562 8.21843C34.4726 7.03843 35.484 6.06915 36.7904 5.31058C38.139 4.55202 39.8247 4.00417 41.8476 3.66702C43.9125 3.32988 46.3779 3.16131 49.2436 3.16131ZM46.7782 17.5109C46.7782 18.8594 47.0943 19.9551 47.7265 20.798C48.4007 21.6409 49.2647 22.0623 50.3182 22.0623C51.4139 22.0623 52.2779 21.6409 52.91 20.798C53.5421 19.9551 53.8582 18.8594 53.8582 17.5109C53.8582 16.1623 53.5421 15.0877 52.91 14.287C52.2779 13.4441 51.4139 13.0227 50.3182 13.0227C49.2647 13.0227 48.4007 13.4441 47.7265 14.287C47.0943 15.0877 46.7782 16.1623 46.7782 17.5109Z" fill="#F5CBD7"/>
<path d="M67.955 17.1955C67.955 12.4756 66.3535 8.95562 63.1507 6.63777C60.1875 4.46486 55.9279 3.31039 50.3721 3.17459L49.2439 3.1607C46.3782 3.1607 43.9118 3.32976 41.8468 3.6669C39.8245 4.00402 38.1393 4.55217 36.7909 5.31053C35.4847 6.06899 34.4732 7.03835 33.7568 8.21812C33.0826 9.39797 32.6176 10.8308 32.3647 12.5162C32.0697 14.5391 31.8599 16.8576 31.7335 19.4704L31.6548 21.4381C31.5916 23.4135 31.5754 25.4126 31.607 27.4354C31.6491 30.0903 31.7548 32.661 31.9233 35.1473C32.134 37.5914 32.4073 39.6777 32.7444 41.4054C33.1658 43.5547 34.0307 45.3041 35.3371 46.6527C36.6013 47.9166 38.2355 48.5876 40.2402 48.6667L40.6461 48.676C41.7417 48.676 42.7744 48.5491 43.7436 48.2963C44.5916 48.1119 45.3438 47.7989 45.9983 47.3564L46.273 47.1589C46.9895 46.611 47.5585 45.8729 47.9799 44.9458C48.4013 43.9765 48.6111 42.7961 48.6111 41.4054C48.6111 40.2677 48.59 39.1294 48.5479 37.9916C48.5479 36.854 48.569 35.8423 48.6111 34.9575C48.6954 34.0307 48.8646 33.2937 49.1174 32.7459C49.3702 32.1981 49.7703 31.9234 50.318 31.9233C50.6973 31.9233 50.9721 32.1135 51.1406 32.4928C51.3091 32.83 51.4133 33.3148 51.4555 33.9466C51.4976 34.5366 51.4976 35.2325 51.4555 36.0332C51.4133 36.8337 51.3922 37.6764 51.3922 38.5611C51.3922 39.7411 51.4767 40.9426 51.6453 42.1647C51.8139 43.3446 52.1943 44.4195 52.7843 45.3887C53.4164 46.3577 54.3012 47.1581 55.4387 47.7901C56.4713 48.3064 57.8103 48.5976 59.456 48.6621L60.1798 48.676C61.444 48.676 62.6034 48.5069 63.6569 48.1698C64.5785 47.9117 65.3871 47.5082 66.0829 46.9598L66.3746 46.716C67.0753 46.089 67.6312 45.3168 68.0414 44.3995L68.2081 43.9982C68.6295 42.8603 68.8393 41.4898 68.8393 39.8884C68.8393 37.4863 68.2702 35.2945 67.1324 33.3139C66.0367 31.3335 64.5407 29.8584 62.6445 28.8892V28.258C64.3827 27.4679 65.678 26.2701 66.5274 24.6652L66.691 24.338C67.4285 22.7893 67.8427 20.7726 67.9349 18.2882L67.955 17.1955ZM50.6977 17.5104C50.6976 16.6436 50.4972 16.3311 50.4292 16.2449L50.4045 16.214L50.3844 16.1878C50.3672 16.1865 50.3452 16.1831 50.318 16.1831C50.2931 16.1831 50.2749 16.185 50.2625 16.1862C50.2492 16.1986 50.2277 16.2205 50.1992 16.2557C50.1248 16.3549 49.9385 16.675 49.9384 17.5104C49.9384 18.3061 50.1102 18.6845 50.2301 18.8623C50.2442 18.878 50.2558 18.8886 50.264 18.8963C50.2764 18.8975 50.294 18.9009 50.318 18.9009V22.0616C49.2646 22.0616 48.4011 21.6404 47.7268 20.7976C47.0947 19.9548 46.7777 18.8589 46.7777 17.5104C46.7778 16.1621 47.0948 15.087 47.7268 14.2864C48.401 13.444 49.2648 13.0225 50.318 13.0224C51.4134 13.0224 52.2772 13.444 52.9093 14.2864C53.5413 15.087 53.8583 16.1621 53.8584 17.5104L53.843 18.0042C53.7739 19.1291 53.4625 20.06 52.9093 20.7976C52.2771 21.6404 51.4137 22.0616 50.318 22.0616V18.9009C50.3445 18.9009 50.3659 18.8975 50.3829 18.8963C50.5026 18.7347 50.6977 18.3606 50.6977 17.5104ZM71.0941 18.3932C70.9929 21.1507 70.5274 23.6337 69.5446 25.6976C69.0204 26.7983 68.3479 27.7697 67.5445 28.6114C68.4553 29.5358 69.2424 30.5964 69.8996 31.7845H69.898C71.3085 34.2575 72 36.9807 72 39.8884C72 41.7514 71.757 43.5139 71.1712 45.0955L71.1651 45.114L71.1573 45.1325C70.573 46.6517 69.6906 47.9903 68.4828 49.0711L68.4751 49.0788C67.3303 50.0963 65.9877 50.799 64.5088 51.2132L64.5072 51.2116C63.1343 51.6371 61.6843 51.8366 60.1798 51.8367C58.0738 51.8367 56.0744 51.5488 54.3631 50.778L54.0251 50.6175L53.9633 50.5866L53.9032 50.5526C52.4492 49.7448 51.2157 48.6762 50.2841 47.3271C49.7356 48.2216 49.0453 49.0164 48.1929 49.6683C47.1063 50.4992 45.8693 51.048 44.5399 51.3536L44.5414 51.3552C43.2887 51.6819 41.9859 51.8367 40.6461 51.8367C37.7521 51.8366 35.1315 50.918 33.1009 48.8874L33.0839 48.8704L33.0669 48.8519C31.2685 46.9954 30.1629 44.6604 29.6439 42.0135L29.6423 42.0104C29.3685 40.607 29.1386 39.0166 28.9494 37.2478L28.7735 35.4189L28.7719 35.3896L28.7688 35.3618C28.6395 33.4537 28.5475 31.4995 28.491 29.5004L28.4463 27.4863V27.4848C28.4031 24.7224 28.4461 21.9998 28.5759 19.3176C28.706 16.6298 28.925 14.2075 29.238 12.061L29.2395 12.0486C29.5362 10.0707 30.1005 8.24391 31.0113 6.65012L31.0329 6.61462L31.0545 6.57758C32.0704 4.90438 33.4838 3.57557 35.2029 2.57733L35.2214 2.56652L35.2415 2.55572C36.9947 1.56963 39.0546 0.928356 41.3283 0.549418L41.3375 0.547875C43.6196 0.175299 46.2653 0 49.2439 0C55.6667 3.84901e-05 61.074 1.2043 65.0026 4.07742C69.192 7.1092 71.1157 11.6845 71.1157 17.1955L71.0941 18.3932Z" fill="#070D0D"/>
<path d="M26.4234 24.2748C31.3119 25.1598 34.9783 26.9298 37.4226 29.5847C39.8669 32.2397 41.089 35.6743 41.089 39.8886C41.089 42.6279 40.4147 44.7772 39.0662 46.3364C37.7176 47.8957 35.8844 48.6754 33.5666 48.6754C30.8273 48.6754 28.2355 47.4743 25.7912 45.0722C23.3891 42.67 21.3873 39.3197 19.7859 35.0211L19.4066 35.1476C19.7859 37.1704 19.8913 39.0247 19.7227 40.7104C19.5963 42.354 19.217 43.7657 18.5848 44.9457C17.9527 46.1257 17.0888 47.0529 15.9931 47.7271C14.9395 48.3593 13.6752 48.6754 12.2002 48.6754C10.0088 48.6754 8.23883 48.0011 6.89027 46.6525C5.58385 45.3039 4.71992 43.555 4.2985 41.4057C3.91921 39.5093 3.62421 37.1915 3.4135 34.4522C3.24493 31.6708 3.16064 28.8262 3.16064 25.9183C3.16064 23.0105 3.24493 20.1869 3.4135 17.4477C3.62421 14.6663 3.91921 12.3273 4.2985 10.4309C4.71992 8.28164 5.60492 6.53272 6.95348 5.18416C8.34419 3.83559 10.2827 3.16131 12.7692 3.16131C18.7113 3.16131 20.9027 7.3545 19.3434 15.7409L19.7227 15.8041C20.3127 14.2027 21.008 12.6434 21.8088 11.1263C22.6516 9.60913 23.642 8.26057 24.7798 7.08058C25.9177 5.90058 27.1819 4.95237 28.5727 4.23595C30.0055 3.51952 31.5648 3.16131 33.2505 3.16131C35.484 3.16131 37.1908 3.77238 38.3708 4.99452C39.5508 6.17451 40.1408 7.92343 40.1408 10.2413C40.1408 12.0113 39.7615 13.697 39.0029 15.2984C38.2865 16.8998 37.2962 18.3327 36.0319 19.5969C34.7676 20.8191 33.3137 21.8094 31.6701 22.568C30.0266 23.2844 28.2777 23.6426 26.4234 23.6426V24.2748Z" fill="#442F2A"/>
<path d="M40.1415 10.2414C40.1415 7.9236 39.5512 6.17414 38.3713 4.99415C37.265 3.84831 35.6951 3.23995 33.6627 3.16841L33.2506 3.1607C31.5649 3.1607 30.0057 3.51996 28.5728 4.23638C27.1821 4.9528 25.9172 5.90072 24.7794 7.0807L24.3596 7.53135C23.3965 8.60053 22.5459 9.79852 21.8085 11.1257C21.0078 12.6428 20.3119 14.2022 19.7219 15.8035L19.3438 15.7402C20.8541 7.61658 18.8445 3.42711 13.3157 3.17304L12.7693 3.1607C10.2832 3.1607 8.34483 3.8357 6.95415 5.18398C5.60559 6.53254 4.71954 8.28195 4.29812 10.4312C3.91889 12.3274 3.6245 14.6661 3.4138 17.4471C3.24523 20.1864 3.1607 23.0105 3.1607 25.9183L3.17613 28.0867C3.20773 30.2441 3.28736 32.3666 3.4138 34.4528C3.6245 37.1916 3.9189 39.5092 4.29812 41.4054C4.71954 43.5547 5.58445 45.3041 6.89088 46.6527C8.15503 47.9166 9.78927 48.5876 11.794 48.6667L12.1999 48.676C13.4903 48.676 14.6196 48.4329 15.5874 47.9491L15.9933 47.7268C16.952 47.1368 17.7338 46.3536 18.3376 45.3764L18.5845 44.9458C19.2166 43.7659 19.5955 42.3543 19.7219 40.711C19.8694 39.2362 19.8086 37.6317 19.5368 35.8989L19.4071 35.1473L19.7852 35.0208C21.3866 39.3193 23.3897 42.6702 25.7918 45.0723C28.0831 47.3241 30.504 48.5198 33.0546 48.6605L33.567 48.676C35.8846 48.6759 37.7173 47.8954 39.0658 46.3363C40.3302 44.8743 41.0024 42.8939 41.0813 40.3946L41.0891 39.8884C41.089 35.9375 40.0149 32.6718 37.8666 30.0914L37.4222 29.5852C34.9779 26.9302 31.3115 25.1597 26.423 24.2747V23.642C28.2773 23.642 30.0267 23.2842 31.6702 22.5678C33.3137 21.8093 34.7674 20.819 36.0316 19.5969C37.2958 18.3328 38.2861 16.9 39.0025 15.2988C39.6664 13.8974 40.0401 12.4309 40.123 10.9004L40.1415 10.2414ZM43.279 11.0763C43.1746 12.992 42.706 14.8352 41.8854 16.5875L41.8885 16.589C41.0117 18.549 39.7978 20.3002 38.2664 21.8317L38.2293 21.8687C37.3746 22.6949 36.4462 23.4275 35.4544 24.0741C36.8275 24.8539 38.0684 25.7689 39.1584 26.8366L39.7479 27.4447C42.818 30.7796 44.2497 35.0231 44.2498 39.8884L44.2405 40.4933C44.145 43.5027 43.321 46.2483 41.4564 48.4043C39.4288 50.7484 36.6747 51.8366 33.567 51.8367C30.0382 51.8367 26.8742 50.3601 24.1204 47.8441L23.5756 47.3271L23.5663 47.3163L23.5555 47.3071C22.9621 46.7136 22.3985 46.0746 21.8579 45.3964C21.7108 45.7515 21.5512 46.1002 21.3702 46.4382C20.4853 48.0898 19.2405 49.4391 17.6493 50.4184L17.6339 50.4276L17.62 50.4369C15.9849 51.4179 14.1324 51.8367 12.1999 51.8367C9.30585 51.8366 6.68526 50.918 4.65462 48.8874L4.63764 48.8704L4.62067 48.8519C2.82464 46.9979 1.72058 44.6668 1.20069 42.0243C0.891634 40.4788 0.638793 38.7135 0.441386 36.7385L0.262363 34.6951L0.259276 34.6427C0.0867133 31.7951 2.91206e-08 28.887 0 25.9183C0 22.9498 0.0865271 20.0616 0.259276 17.2542L0.260819 17.231L0.262363 17.2094C0.478931 14.3507 0.787926 11.8747 1.20069 9.81082C1.72556 7.14461 2.86493 4.80237 4.7179 2.94926L4.73642 2.93229L4.75339 2.91531C6.88766 0.84572 9.70416 0 12.7693 0C16.5602 4.61864e-05 19.8828 1.42102 21.6711 4.8429C21.7772 5.04588 21.8753 5.25354 21.9675 5.46486C22.143 5.26874 22.322 5.07543 22.5045 4.88612C23.8711 3.46902 25.4123 2.30842 27.1252 1.42602L27.1422 1.41676L27.1592 1.40904C29.0539 0.461681 31.1006 0 33.2506 0C36.0409 2.23785e-05 38.6619 0.773511 40.6045 2.75944C40.6138 2.76873 40.623 2.77944 40.6322 2.78876C40.636 2.7926 40.6409 2.79571 40.6446 2.79956H40.643C42.5861 4.76803 43.3022 7.43564 43.3022 10.2414L43.279 11.0763Z" fill="#070D0D"/>
</svg>
