<svg width="66" height="66" viewBox="0 0 66 66" fill="none" xmlns="http://www.w3.org/2000/svg">
<g clip-path="url(#clip0_55_51)">
<path d="M45.9992 22.2854C42.8111 19.1671 38.7113 18.8306 35.2996 21.4076C33.9585 22.4204 32.6688 23.8423 31.3569 25.7533C29.6863 28.189 29.2552 31.1582 28.8751 33.7773C28.2022 38.4109 28.7177 43.0118 29.216 47.4596C29.2898 48.1169 29.4594 49.6287 30.9301 49.6284C30.9771 49.6284 31.0258 49.6271 31.0759 49.6238C32.5365 49.5298 32.5419 48.2753 32.5454 47.4447C32.5454 47.3649 32.5454 47.2869 32.5476 47.2111C32.566 46.2152 32.5419 45.2037 32.5184 44.2259C32.4851 42.8288 32.4502 41.3841 32.5417 39.9772C32.7112 37.0259 33.0561 34.0874 33.5744 31.1772C34.025 28.7431 35.3756 26.5697 37.3553 25.0934C39.4595 23.4863 41.3378 23.6761 43.0998 25.6721C44.4336 27.1708 45.3229 29.0144 45.6673 30.9944C46.0579 33.2952 46.327 35.6598 46.5869 37.9472C46.6884 38.8386 46.7898 39.7306 46.8983 40.6206L46.8517 40.6269C46.7882 40.6356 46.7295 40.6657 46.6857 40.7127C46.6418 40.7597 46.6153 40.8203 46.611 40.8844C46.5834 41.288 46.555 41.6916 46.5258 42.0952C46.4563 43.0667 46.3843 44.0716 46.3338 45.0622L46.3275 45.1822C46.2683 45.9001 46.2756 46.6217 46.3486 47.3382C46.5188 48.6058 47.4071 49.5171 48.5591 49.6056C49.6681 49.6906 50.699 48.9364 51.1234 47.7294C51.2197 47.4434 51.2794 47.1462 51.3016 46.845C51.7244 42.0178 51.9654 35.6647 50.0601 29.3314C49.1788 26.4017 47.8501 24.0962 45.9992 22.2854Z" fill="#F5CBD7"/>
<path d="M19.5835 46.8564C19.6011 47.7226 19.816 48.5732 20.2116 49.3435C20.4599 49.8251 21.2852 50.0752 21.7951 50.0752C21.8116 50.0752 21.8275 50.0752 21.8435 50.0752C22.3223 50.0597 22.9139 49.4812 23.0443 49.0361C23.2446 48.2984 23.3258 47.5335 23.285 46.7701C23.1227 42.3022 22.9357 37.7604 22.7556 33.3683L22.3967 24.584C22.3696 23.915 22.3185 22.6694 20.81 22.5444C20.7604 22.5409 20.7107 22.5503 20.6658 22.5716C19.507 23.1357 19.5435 24.1969 19.573 25.0497C19.5782 25.1956 19.5833 25.3406 19.5827 25.4821C19.5616 31.338 19.5416 39.0597 19.5835 46.8564Z" fill="#F5CBD7"/>
<path d="M20.8921 13.8897C20.709 13.7482 20.5197 13.6021 20.3533 13.45C20.3147 13.4144 20.2668 13.3906 20.2153 13.3813C20.1637 13.372 20.1105 13.3777 20.062 13.3976C18.2297 14.1421 18.1128 15.4231 18.3373 16.3667C18.4478 16.744 18.6368 17.0935 18.8919 17.392C19.1469 17.6904 19.4622 17.931 19.8169 18.0979C19.9224 18.1365 20.0342 18.1549 20.1464 18.1523C20.7282 18.1523 21.5132 17.7465 21.768 17.3323C21.962 16.9926 22.0821 16.6156 22.1206 16.226C22.159 15.8364 22.115 15.4431 21.9911 15.0718C21.7918 14.5854 21.3344 14.2322 20.8921 13.8897Z" fill="#F5CBD7"/>
<path d="M64.5827 11.018C63.6205 3.08439 56.9716 -0.100166 50.8116 0.266229C47.156 0.481613 43.5354 0.596488 39.224 0.702414C35.3179 0.798562 31.3122 0.881203 27.7782 0.953993C22.707 1.05883 17.463 1.16744 12.2563 1.31193C6.27844 1.47816 1.45829 5.34475 0.53132 10.7152C0.159123 12.8704 0.148288 15.0454 0.17128 17.4608C0.238633 24.5146 0.341421 31.6418 0.441773 38.5344L0.452866 39.2807C0.492718 42.0535 0.531639 44.8266 0.569689 47.5997C0.576181 48.0669 0.592407 48.5351 0.609178 49.0034L0.610566 49.0409C0.678581 50.2011 0.667115 51.3647 0.576227 52.5234C0.254611 55.6178 1.43422 58.9169 3.73206 61.3484C6.28631 64.0511 9.90625 65.4251 13.9279 65.2193C18.3164 64.9911 22.7928 65.0349 27.1217 65.0767L27.4352 65.0797C32.5724 65.1291 37.7967 65.2603 42.8557 65.3879L45.4064 65.4518C45.836 65.4776 46.2622 65.5422 46.6799 65.6457C46.8987 65.6924 47.1181 65.7389 47.3364 65.7766C47.3677 65.782 47.3994 65.7848 47.4313 65.7848H50.1993C50.2263 65.7848 50.2536 65.7826 50.2804 65.7788C50.8336 65.6973 51.3894 65.6237 51.9434 65.5509L51.985 65.5455C53.2269 65.3825 54.5114 65.2144 55.7633 64.9414C61.1634 63.7635 65.7385 58.1399 65.7536 52.6616C65.7574 51.3704 65.762 50.0792 65.7671 48.788L65.7696 48.1399C65.7966 41.063 65.8264 33.7449 65.6749 26.5391C65.564 21.298 65.1967 16.0758 64.5827 11.018ZM61.5802 52.2795C61.597 56.5108 57.9213 60.4724 53.2123 61.2984C49.6042 61.9312 45.916 61.7161 42.3488 61.5089C41.0247 61.4317 39.6555 61.3519 38.2949 61.3158C36.7501 61.275 35.1772 61.1949 33.6473 61.1169L33.5121 61.1102C32.8537 61.0768 32.1948 61.0433 31.5413 61.0135H31.511C29.8464 61.0135 28.1815 61.0113 26.5166 61.0072C24.5848 61.004 22.6229 61.0007 20.6507 61.0007C18.0581 61.0007 15.9266 61.0061 13.9425 61.0181H13.8552C10.943 61.0181 8.54084 60.1506 6.90815 58.509C5.21054 56.8022 4.32468 54.2529 4.34713 51.136C4.39961 43.8073 4.36793 36.3879 4.3371 29.2123C4.31978 25.1151 4.30193 20.8789 4.29977 16.6932C4.25914 14.2825 4.80218 11.898 5.88217 9.74469C7.10696 7.37956 9.29467 6.12447 12.7667 5.79501C17.6388 5.33328 21.5702 5.08175 25.1388 5.0038C35.4412 4.77728 43.3699 4.69716 50.846 4.7436C56.2994 4.77755 59.4476 7.35348 60.4755 12.6188C61.6116 18.4556 61.5953 24.4549 61.578 30.2596L61.5767 30.7518C61.5521 38.9855 61.5534 45.8261 61.5794 52.2795H61.5802Z" fill="#F5CBD7"/>
</g>
<defs>
<clipPath id="clip0_55_51">
<rect width="66" height="66" fill="white"/>
</clipPath>
</defs>
</svg>
