<svg width="32" height="32" viewBox="0 0 32 32" fill="none" xmlns="http://www.w3.org/2000/svg">
<path d="M26.3475 4.90625L10.0663 2.03125C9.54399 1.93934 9.00657 2.05863 8.57221 2.3629C8.13785 2.66716 7.84211 3.13148 7.75004 3.65375L4.03129 24.7788C3.98581 25.0375 3.99176 25.3028 4.04882 25.5593C4.10589 25.8158 4.21293 26.0585 4.36384 26.2736C4.51475 26.4887 4.70657 26.672 4.92833 26.8129C5.1501 26.9538 5.39746 27.0497 5.65629 27.095L21.9375 29.97C22.1964 30.0157 22.4618 30.0098 22.7184 29.9529C22.975 29.8959 23.2179 29.7889 23.4332 29.638C23.6484 29.487 23.8318 29.2952 23.9728 29.0733C24.1138 28.8514 24.2097 28.604 24.255 28.345L27.9738 7.22C28.0649 6.69753 27.9447 6.16027 27.6398 5.72637C27.3348 5.29248 26.87 4.99748 26.3475 4.90625ZM16.9375 16.445C16.8967 16.6763 16.7758 16.8859 16.5959 17.037C16.416 17.1881 16.1887 17.271 15.9538 17.2713C15.8951 17.2712 15.8366 17.2662 15.7788 17.2563L10.5913 16.34C10.3448 16.2794 10.1305 16.1272 9.99202 15.9144C9.85353 15.7017 9.80115 15.4442 9.84552 15.1942C9.88989 14.9442 10.0277 14.7205 10.2309 14.5683C10.4342 14.4162 10.6877 14.3471 10.94 14.375L16.125 15.2863C16.2545 15.3089 16.3783 15.3568 16.4892 15.4274C16.6001 15.4979 16.6961 15.5896 16.7715 15.6972C16.847 15.8048 16.9005 15.9262 16.929 16.0546C16.9575 16.1829 16.9604 16.3156 16.9375 16.445ZM22.8125 13.4225C22.7718 13.6536 22.651 13.863 22.4714 14.0141C22.2918 14.1651 22.0647 14.2482 21.83 14.2488C21.7709 14.2489 21.7119 14.2434 21.6538 14.2325L11.2788 12.4013C11.0176 12.355 10.7854 12.2069 10.6334 11.9894C10.4813 11.772 10.4219 11.5031 10.4682 11.2419C10.5144 10.9806 10.6625 10.7485 10.88 10.5964C11.0974 10.4444 11.3663 10.385 11.6275 10.4313L22.0025 12.2638C22.1321 12.2863 22.256 12.3341 22.3671 12.4045C22.4781 12.475 22.5742 12.5667 22.6498 12.6743C22.7254 12.7819 22.779 12.9034 22.8076 13.0318C22.8362 13.1602 22.8391 13.293 22.8163 13.4225H22.8125ZM23.5063 9.4825C23.4655 9.71383 23.3445 9.92342 23.1646 10.0745C22.9848 10.2256 22.7574 10.3085 22.5225 10.3088C22.4639 10.3087 22.4053 10.3037 22.3475 10.2938L11.9725 8.46125C11.8402 8.44178 11.7132 8.39597 11.5989 8.32653C11.4846 8.25709 11.3854 8.16544 11.3072 8.05699C11.2289 7.94854 11.1732 7.8255 11.1434 7.69515C11.1135 7.5648 11.1101 7.42978 11.1334 7.29809C11.1566 7.1664 11.206 7.0407 11.2787 6.92845C11.3514 6.81619 11.4458 6.71965 11.5565 6.64454C11.6671 6.56943 11.7917 6.51728 11.9229 6.49116C12.054 6.46505 12.1891 6.4655 12.32 6.4925L22.695 8.32375C22.8247 8.34611 22.9488 8.39385 23.06 8.46424C23.1712 8.53462 23.2674 8.62627 23.3431 8.73392C23.4188 8.84157 23.4726 8.96311 23.5012 9.09157C23.5298 9.22003 23.5328 9.35288 23.51 9.4825H23.5063Z" fill="#573A2E"/>
</svg>
