<svg width="234" height="172" viewBox="0 0 234 172" fill="none" xmlns="http://www.w3.org/2000/svg">
<path d="M229.222 124.784C230.048 119.962 231.728 115.255 231.7 110.289C231.785 105.439 233.323 100.731 233.693 95.9094C235.003 86.4088 231.871 77.0231 228.111 68.4697C221.874 54.7785 208.545 44.5891 193.679 42.6086C181.318 40.2837 168.616 39.3078 156.114 40.6568C148.253 41.6327 140.962 44.8474 133.586 47.5168C120.229 52.4823 106.302 59.2562 98.6123 71.9427C95.2802 77.8268 91.1506 83.2516 88.1887 89.3365C83.6319 100.071 82.2932 112.643 86.6792 123.665C89.9544 131.673 93.7139 139.939 100.321 145.737C106.701 150.875 114.191 154.721 122.08 156.73C131.478 158.682 141.162 160.49 150.759 158.854C159.503 158.051 168.047 156.041 176.505 153.659C179.895 153.142 184.024 151.105 187.014 153.803C191.543 157.448 196.014 161.208 199.973 165.485C202.764 168.297 205.64 171.799 209.884 172C211.735 170.708 212.874 168.699 214.014 166.805C218.912 159.514 216.064 150.301 216.577 142.121C222.244 137.7 227.655 132.075 229.222 124.784ZM212.846 129.893C211.906 139.623 212.618 149.411 212.305 159.17C206.238 153.372 202.65 145.68 197.666 139.049C195.416 135.72 191.002 136.696 187.641 136.839C175.366 138.361 163.205 141.489 150.788 140.973C138.741 140.427 126.466 139.537 115.017 135.433C105.163 131.989 97.7865 123.005 95.4796 112.844C92.4322 99.8417 96.5902 86.0644 103.71 75.1287C109.606 65.8865 119.118 59.8589 128.659 55.0656C137.602 50.8463 147.028 47.4307 156.854 46.1104C169.613 45.3641 182.429 47.1149 194.846 50.0426C210.567 53.286 224.266 65.6855 228.368 81.472C231.586 91.03 229.108 101.248 226.602 110.663C223.811 118.039 219.937 125.904 212.846 129.893Z" fill="#1C1C1C"/>
<path d="M174.939 76.4778C175.11 80.4962 179.068 84.9164 183.312 83.3665C187.185 81.1564 187.783 76.1047 188.154 72.0576C183.711 68.6994 175.993 70.5077 174.939 76.4778Z" fill="#1C1C1C"/>
<path d="M179.154 100.444C178.129 101.851 177.103 103.229 176.078 104.635C177.36 107.936 179.467 112.012 183.625 111.782C187.071 109.486 187.356 104.75 187.84 100.99C185.049 99.7843 182.059 99.6121 179.154 100.444Z" fill="#1C1C1C"/>
<path d="M158.079 105.123C156.797 107.276 153.266 109.4 155.145 112.126C156.057 114.308 158.392 117.006 160.984 115.599C164.487 113.705 164.971 109.199 165.398 105.668C164.714 105.295 163.319 104.577 162.635 104.204C161.097 104.52 159.56 104.807 158.079 105.123Z" fill="#1C1C1C"/>
<path d="M159.759 87.3846C163.718 84.2561 165.569 76.3341 160.186 73.6648C158.307 74.325 156.199 74.5833 154.604 75.8462C153.664 78.2572 153.237 80.8405 152.44 83.3089C153.864 85.8347 156.541 88.9633 159.759 87.3846Z" fill="#1C1C1C"/>
<path d="M137.858 106.357C135.921 106.73 133.102 106.788 132.817 109.285C131.393 113.131 133.415 117.35 136.377 119.819C137.658 120.852 139.851 121.541 140.934 119.819C142.956 117.149 144.066 113.619 143.668 110.261C143.383 107.563 140.336 105.926 137.858 106.357Z" fill="#1C1C1C"/>
<path d="M138.655 83.51C138.94 79.4629 134.184 76.7074 130.795 78.8888C127.719 82.2758 128.773 89.4514 133.614 91.0014C137.288 91.1162 138.513 86.495 138.655 83.51Z" fill="#1C1C1C"/>
<path d="M103.644 34.5081C103.834 29.1322 100.263 24.6522 97.1172 20.6577C92.0878 14.2263 84.0476 11.5859 76.543 9.34078C70.3659 7.7098 64.3278 5.07528 57.8741 5.1121C50.945 4.82765 44.2559 7.11345 37.8088 9.35674C28.7719 12.9917 19.7869 17.7518 13.3358 25.2207C8.66126 30.6359 5.33597 37.7535 6.33682 45.0526C6.83353 54.5725 13.0269 62.8565 20.4962 68.3556C28.83 74.3526 37.9533 79.6177 48.1878 81.4021C47.5121 89.4757 46.397 98.8268 51.8649 105.61C61.7699 99.5204 64.2246 87.4251 69.2113 77.7328C81.2666 74.4479 92.7997 66.4254 97.8029 54.6308C100.611 48.2396 103.447 41.5799 103.644 34.5081ZM89.2377 57.9758C84.0344 65.8468 75.343 71.045 66.2398 73.0441C61.7444 79.6658 59.0485 87.2563 54.6503 93.9221C54.3518 88.0201 55.7764 82.1967 55.6458 76.3122C54.5487 73.8219 51.64 73.721 49.3778 73.2804C40.4301 72.1738 32.4258 67.5687 24.9427 62.8486C18.066 58.4975 11.9231 51.678 11.4517 43.2127C10.72 33.6682 17.724 25.7821 25.0476 20.6783C31.453 16.5642 38.2257 12.1831 46.0025 11.5043C52.0403 10.5756 58.187 11.5247 64.0865 12.8891C69.6206 14.826 74.5299 18.1906 79.9988 20.4261C86.9028 23.2191 93.2571 28.6695 95.3731 36.0174C95.4888 43.665 92.6285 51.2045 89.2377 57.9758Z" fill="#1C1C1C"/>
<path d="M68.2624 37.5222C67.2045 41.7891 68.004 46.1486 70.0084 50.0235C73.515 47.9814 77.5124 45.1421 77.9729 40.7449C75.8275 37.5678 71.5549 38.1724 68.2624 37.5222Z" fill="#1C1C1C"/>
<path d="M53.5477 38.3227C48.404 39.1414 50.2286 49.9202 55.2075 48.4055C57.7654 46.6712 60.3404 44.1242 60.8793 40.9228C59.9517 38.1109 55.9669 38.2366 53.5477 38.3227Z" fill="#1C1C1C"/>
<path d="M31.5176 36.6944C30.4187 40.3801 31.93 44.1016 33.2715 47.4998C34.4041 47.3809 36.6625 47.2101 37.7916 47.1248C40.2995 44.5708 42.5669 41.7201 43.4467 38.1812C40.2361 35.7749 34.7634 32.9282 31.5176 36.6944Z" fill="#1C1C1C"/>
</svg>
