<svg width="234" height="172" viewBox="0 0 234 172" fill="none" xmlns="http://www.w3.org/2000/svg">
<path d="M80.3501 120.863C81.2502 128.099 84.1209 135.041 85.5806 142.219C87.1376 149.591 88.5243 156.984 89.7164 164.415C90.1056 166.919 91.4193 169.715 94.5333 170.752C100.056 172.473 106.235 172.199 111.952 171.221C116.015 170.459 120.783 169.676 123.24 166.625C126.354 162.89 125.649 158.157 125.017 153.933C123.216 145.093 123.022 136.078 120.248 127.375C126.282 124.735 129.979 119.318 130.052 113.842C139.638 113.255 149.247 114.037 158.857 113.881C166.228 113.881 173.819 114.155 180.922 112.238C187.248 109.715 193.646 106.762 198.122 102.284C203.45 95.3996 206.881 87.6551 208.754 79.715C211.625 70.2691 211.576 60.3929 209.557 50.8492C208.073 44.8061 206.589 38.6457 203.11 33.1112C200.312 27.7917 196.76 22.7852 193.208 17.7982C188.099 11.188 181.239 4.91025 171.848 2.3092C165.109 0.744655 157.908 -0.976336 150.95 0.666435C145.476 2.09408 139.443 3.56083 135.94 7.47219C115.772 23.6066 94.3387 38.8609 70.5458 51.475C59.5008 57.3616 46.4366 61.5272 38.4083 70.4255C35.3673 73.4568 34.5889 77.4073 34.2239 81.1818C26.9012 84.2326 21.3057 91.2144 23.4709 97.9615C25.2226 104.396 28.4338 110.576 32.6669 116.228C34.4428 118.457 37.5326 119.689 40.6466 120.276C45.2689 121.117 50.5724 122.271 54.8785 120.041C57.068 121.391 59.3306 122.955 62.2013 123.17C68.4049 123.6 74.414 122.016 80.3501 120.863ZM96.066 166.723C94.0711 166.254 93.8279 164.396 93.4143 163.066C91.0788 153.796 89.6434 144.409 86.9916 135.198C85.386 130.308 83.7803 125.419 82.7342 120.432C93.8765 119.063 104.532 115.641 115.82 114.937C115.018 116.834 114.434 118.907 112.706 120.432C110.687 122.31 107.792 123.952 107.671 126.651C107.208 132.127 109.495 137.427 110.201 142.825C111.271 150.589 114.069 158.177 114.312 166C108.425 167.408 102.026 168.307 96.066 166.723ZM52.3241 65.8492C59.9874 61.5859 68.1616 57.9483 75.679 53.4893C96.4309 41.2468 115.261 27.029 132.753 11.8529C135.648 9.54522 138.202 6.72904 142.119 5.45784C147.934 3.52172 154.308 1.76161 160.681 2.89591C161.849 3.11103 163.017 3.32615 164.209 3.56083C168.953 4.46045 173.697 5.5752 177.687 7.92202C185.058 12.0485 190.751 17.896 194.984 24.2128C204.57 37.7853 208.048 53.7827 206.832 69.2521C205.275 77.8767 202.818 86.5599 198.001 94.4022C197.271 95.6343 196.444 96.8272 195.568 98.0202C193.67 100.66 190.702 102.557 188.051 104.63C186.25 106.019 184.912 107.975 182.309 108.385C170.972 110.889 159.125 109.989 147.544 110.145C136.451 109.52 125.381 110.615 114.361 111.514C108.79 111.984 103.291 112.922 97.8906 114.135C90.5435 115.817 82.9532 116.599 75.6061 118.203C67.5292 113.822 61.593 107.271 57.8952 100.093C55.7056 95.732 53.0296 91.4491 52.3484 86.7163C51.3023 79.7932 52.1294 72.7919 52.3241 65.8492ZM34.1996 83.8611C34.4429 86.423 34.7592 88.9849 35.1728 91.5469C32.1074 92.5443 29.0907 93.659 25.9767 94.5586C27.3634 90.4126 30.5504 86.9119 34.1996 83.8611ZM26.3416 95.9276C29.5043 95.3605 32.5453 94.5 35.6107 93.659C36.0972 95.1844 36.5838 96.6903 37.119 98.2158C33.9807 99.2132 30.8666 100.23 27.8256 101.364C27.2661 99.5652 26.7552 97.7464 26.3416 95.9276ZM31.6939 109.011C30.5504 107.075 29.5043 105.119 28.5798 103.125C31.7668 102.244 35.0025 101.462 38.2138 100.602C39.0409 102.205 39.9168 103.829 40.8169 105.413C37.6543 106.43 34.6376 107.681 31.6939 109.011ZM36.8271 114.995C35.4647 113.627 34.224 112.218 33.0319 110.771C36.1702 109.95 39.3572 109.207 42.4712 108.19C43.4443 109.52 44.466 110.849 45.5364 112.16C42.4954 112.844 39.5761 113.822 36.8271 114.995ZM41.133 116.13C43.4685 115.7 45.8285 115.289 48.091 114.604C48.9425 115.406 49.7696 116.208 50.6454 117.01C47.4584 116.814 44.2714 116.56 41.133 116.13Z" fill="#1C1C1C"/>
<path d="M138.64 77.7984C143.384 86.9705 149.71 96.1622 159.976 102.049C165.353 105.256 172.554 106.997 179.122 105.237C186.275 103.379 191.238 98.2939 194.449 93.0331C202.088 80.5167 202.502 65.9665 199.898 52.4136C199.217 50.3993 199.582 47.1137 195.982 47.0746C196.809 54.6627 198.074 62.3094 197.028 69.9561C196.03 78.1504 193.817 86.5598 188.002 93.4829C184.791 97.1596 180.266 100.68 174.451 101.188C168.126 101.423 162.482 98.6655 157.884 95.4386C162.141 89.7671 165.912 83.7045 167.25 77.1139C169.415 66.3381 169.172 54.8191 163.333 44.7669C160.073 38.7239 154.551 33.6782 148.615 29.2193C145.379 26.7356 140.976 25.6599 136.767 24.7408C139.662 17.9937 144.601 10.7968 153.553 8.41085C161.922 6.18138 170.486 10.0536 176.349 14.669C180.29 17.5243 182.65 21.4748 186.64 24.2714C186.202 20.4187 182.869 17.3874 180.022 14.493C175.765 10.4448 170.072 6.88543 163.577 5.69246C161.801 5.36 159.952 5.22308 158.078 5.28175C151.68 5.37954 145.817 8.29351 141.9 12.2244C136.572 17.583 133.896 24.291 132.388 30.9403C129.152 46.6248 131.439 63.0134 138.64 77.7984ZM144.163 44.1411C145.817 42.6939 148.226 44.2585 149.223 45.5296C152.021 49.1477 154.429 53.1764 154.794 57.4789C155.524 61.6249 156.084 65.8296 155.573 70.0148C155.354 71.8531 153.48 73.1047 151.85 74.1999C150.196 69.6627 151.85 64.754 149.88 60.2559C148.493 56.9313 143.19 55.9339 142.144 52.4723C141.292 49.6757 142.095 46.4879 144.163 44.1411Z" fill="#1C1C1C"/>
<path d="M129.152 82.6485C133.385 88.9458 136.816 95.9667 144.211 100.367C142.946 98.2744 141.462 96.26 139.905 94.2848C136.816 90.4908 134.821 86.247 132.485 82.1596C128.763 75.4516 127.449 68.1178 125.892 60.96C124.311 50.6732 125.333 40.132 128.325 30.0603C130.077 24.1346 131.099 17.8177 135.94 12.8699C132.948 14.7669 130.977 17.4462 129.955 20.3601C124.53 34.3432 119.81 49.089 122.584 63.7958C124.019 70.2104 125.454 76.7815 129.152 82.6485Z" fill="#1C1C1C"/>
<path d="M119.153 106.234C117.645 103.437 115.967 100.562 112.853 98.7046C113.436 101.853 115.772 104.591 119.153 106.234Z" fill="#1C1C1C"/>
<path d="M108.96 103.164C108.133 101.873 106.089 101.892 104.63 101.462C106.187 104.044 108.084 106.488 110.176 108.796C110.006 106.899 110.176 104.865 108.96 103.164Z" fill="#1C1C1C"/>
<path d="M105.408 109.813C104.776 106.195 102.294 102.87 98.28 101.071C99.5208 104.474 101.832 107.662 105.408 109.813Z" fill="#1C1C1C"/>
<path d="M97.55 109.911C97.4527 108.933 97.696 107.916 97.2825 107.016C95.6768 105.178 92.8061 104.611 90.3003 104.083C92.5871 106.136 95.8227 107.447 97.55 109.911Z" fill="#1C1C1C"/>
</svg>
