<svg width="234" height="172" viewBox="0 0 234 172" fill="none" xmlns="http://www.w3.org/2000/svg">
<g clip-path="url(#clip0_56_253)">
<path d="M80.9562 165.163C81.7455 167.594 82.6621 171.177 85.8704 171.177C89.7662 170.726 93.6619 169.899 97.4558 168.872C99.5946 167.268 99.0345 164.311 99.3145 162.005C101.148 159.624 101.606 156.692 101.021 153.785C102.65 158.271 104.814 162.606 107.844 166.341C112.58 164.511 117.597 163.834 122.562 162.957C126.865 162.005 126.228 156.817 126.33 153.509C127.272 151.454 127.96 149.299 128.393 147.068C129.131 150.777 130.761 154.261 132.976 157.343C139.902 155.639 147.107 155.389 153.982 153.634C156.478 149.925 156.579 145.339 157.572 141.129C159.1 145.113 159.864 149.499 162.359 153.033C163.225 154.361 164.88 153.735 166.179 153.684C170.94 153.158 175.065 150.552 179.699 149.549C181.787 149.073 183.926 148.697 186.039 148.246C189.375 142.081 191.488 135.014 190.903 127.946C190.088 118.874 189.35 109.777 187.593 100.83C185.352 89.6521 184.079 78.2741 180.947 67.2721C180.565 65.8937 179.725 64.3148 178.07 64.2647C173.13 63.8136 168.292 65.217 163.454 66.0942C160.424 66.821 157.114 67.3723 154.746 69.5527C154.695 70.6554 154.67 71.7832 154.721 72.8859C153.244 75.367 151.36 77.6225 150.316 80.3292C151.36 91.4315 152.455 102.609 153.066 113.761C151.894 102.91 149.577 92.2084 148.635 81.3316C145.3 80.2289 141.939 82.0083 138.756 82.9356C134.071 84.7651 129.131 85.6673 124.268 86.8452C122.052 90.454 119.812 94.2383 118.462 98.2983C120.245 105.165 121.696 112.107 122.638 119.15C123.402 125.164 125.413 131.004 125.821 137.069C123.937 126.818 121.594 116.643 119.557 106.393C118.972 104.388 118.742 101.331 116.094 100.98C111.995 100.529 108.328 102.759 104.713 104.338C102.319 105.541 99.6456 106.318 97.5322 107.997C94.5022 111.681 93.0763 116.393 91.7522 120.879C92.1596 121.556 92.567 122.257 92.9744 122.934C87.4236 123.335 82.9422 126.894 77.9771 128.999C76.8313 133.911 74.0049 138.798 75.4563 143.936C76.8567 151.128 79.021 158.12 80.9562 165.163ZM177.866 68.5001C180.871 79.3768 181.965 90.6295 183.773 101.732C184.894 108.924 185.377 116.192 185.657 123.46C185.785 126.944 186.498 130.452 185.734 133.911C179.979 135.816 174.378 138.121 168.623 140.051C167.757 136.317 167.146 132.532 166.815 128.723C166.051 120.052 164.32 111.506 163.683 102.834C162.971 92.5091 161.315 82.309 159.813 72.0839C165.771 70.6303 171.755 69.2519 177.866 68.5001ZM152.48 80.3542C153.371 78.6751 154.262 76.996 155.204 75.367C156.401 84.7901 158.184 94.1632 159.126 103.636C159.686 110.253 161.723 116.668 161.825 123.335C161.927 126.317 162.334 129.274 162.869 132.207C163.683 136.292 163.48 140.627 165.364 144.462L163.454 148.296C160.832 142.432 160.068 136.041 158.616 129.851C156.707 121.881 156.63 113.636 155.535 105.516C154.364 97.1455 154.721 88.5744 152.48 80.3542ZM145.605 85.567C145.682 88.8752 145.987 92.1833 146.573 95.4413C148.253 104.739 148.686 114.238 150.978 123.41C152.225 129.149 154.11 135.089 152.887 140.978C148.966 143.961 143.364 143.685 138.654 144.913C136.057 133.485 134.682 121.856 132.085 110.428C130.633 104.037 129.106 97.6718 128.52 91.1307C134.351 89.7523 140.003 87.6722 145.605 85.567ZM120.983 98.0978C121.772 96.1681 122.613 94.2634 123.453 92.3587C124.828 99.8772 127.374 107.145 129.004 114.588C129.589 119.977 130.251 125.39 131.601 130.678C133.103 136.743 133.689 142.983 135.42 148.998C134.733 149.85 134.02 150.677 133.332 151.529C129.615 143.484 129.131 134.562 126.916 126.117C124.599 116.869 124.599 107.045 120.983 98.0978ZM115.229 105.14C118.513 119.475 121.314 133.961 123.147 148.547C118.895 149.725 114.617 150.777 110.365 151.905C108.583 146.667 107.182 141.304 106.495 135.816C105.4 127.595 102.319 119.751 101.606 111.456C105.858 108.849 110.569 106.97 115.229 105.14ZM97.0229 112.583C98.3215 120.102 101.301 127.219 102.854 134.688C104.051 142.632 104.713 151.128 109.194 158.095C108.914 159.048 108.328 160.952 108.048 161.88C103.872 155.063 101.555 147.319 99.7219 139.6C98.2451 133.084 97.5322 126.292 94.6804 120.127C95.317 117.571 96.1318 115.065 97.0229 112.583ZM91.0902 127.345C93.3818 136.668 95.8771 146.041 96.641 155.639C93.3818 156.065 90.1736 156.842 87.0417 157.82C85.8959 154.186 85.5394 150.376 84.8265 146.642C83.9098 141.755 82.5094 136.993 81.389 132.182C84.7246 130.753 87.831 128.924 91.0902 127.345Z" fill="#1C1C1C"/>
<path d="M51.5566 62.7496C50.4277 62.7112 49.281 62.4944 48.1857 62.6534C43.3169 63.3834 38.4396 64.2009 33.5938 65.0567C32.4231 65.2614 31.4468 65.2906 30.8984 64.0371C30.3939 62.8761 31.0906 62.096 31.833 61.3909C32.1849 61.0542 32.6036 60.7592 33.0046 60.4625C49.7756 47.8536 67.4638 37.0634 86.5327 28.7724C98.7021 23.4868 111.062 19.1377 123.934 16.4093C126.284 15.9125 126.463 15.7179 126.775 13.2765C127.117 10.5377 127.319 7.7855 127.712 5.06935C128.228 1.46474 130.155 0.415096 132.985 2.40105C136.973 5.20509 141.139 7.81452 144.269 11.7715C144.677 12.3052 145.24 12.6951 145.724 13.1656C150.525 10.9813 155.408 10.8176 160.329 11.5227C163.993 12.0533 164.925 14.0854 163.116 17.5121C161.222 21.0895 159.244 24.6235 157.183 28.0965C156.037 30.016 155.862 31.7822 156.755 33.8459C158.082 36.8871 159.26 40.0022 160.384 43.1298C160.977 44.8289 161.671 46.7498 160.171 48.3173C158.573 49.9813 156.673 49.1445 155.009 48.4364C152.343 47.2961 149.732 45.9667 147.136 44.6566C144.387 43.2787 144.21 43.2793 142.664 46.2018C141.291 48.8056 140.037 51.4562 138.715 54.0826C138.254 54.9913 137.827 55.9035 137.299 56.7704C135.309 60.0562 133.204 60.0469 131.423 56.7675C131.005 55.9856 130.606 55.1879 130.012 54.036C128.81 54.732 127.664 55.2215 126.74 55.9796C123.598 58.5713 120.488 61.2014 117.471 63.9641C104.237 76.0674 91.2099 88.4026 79.0727 101.76C77.9208 103.025 76.8355 104.333 75.6696 105.562C74.7189 106.582 73.7332 107.599 72.6878 108.505C71.4673 109.569 70.11 110.586 68.463 109.703C66.8159 108.82 66.4143 107.157 66.4559 105.307C66.5006 103.069 66.5628 100.833 66.5725 98.5919C66.5682 97.9206 66.4043 97.2515 66.2522 96.1069C65.1469 96.724 64.2813 97.0641 63.5528 97.6292C57.0537 102.668 50.3492 107.458 44.4909 113.353C43.6453 114.207 42.7505 115.021 41.7503 115.649C39.0476 117.382 36.5708 115.942 36.6668 112.65C36.7106 111.136 37.0209 109.613 37.4135 108.15C38.2931 104.81 39.3286 101.503 40.2432 98.1661C40.4317 97.5134 40.38 96.7846 40.4961 95.613C39.4026 95.931 38.4878 96.0545 37.6714 96.4346C33.0532 98.5659 28.4491 100.734 23.845 102.902C22.9725 103.312 22.0986 103.916 21.1802 104.074C19.2332 104.433 17.9673 102.74 18.7574 100.839C19.2922 99.5488 20.1516 98.3784 20.9232 97.1995C28.732 85.0133 38.2958 74.5855 49.3567 65.6619C50.185 64.9828 50.9659 64.2462 51.7785 63.5479C51.6993 63.2754 51.6358 63.0221 51.5566 62.7496ZM41.9807 58.4699C42.0389 58.7757 42.0954 59.0989 42.1361 59.4029C43.0423 59.3669 43.9642 59.3501 44.8705 59.3141C48.8161 59.1481 52.7652 58.9471 56.7231 58.8353C57.7871 58.8145 59.1177 58.9607 59.2298 60.3309C59.3098 61.3097 58.8888 62.5225 58.3271 63.3686C57.6639 64.3462 56.6218 65.0399 55.7304 65.8188C51.2512 69.7643 46.5174 73.4204 42.3242 77.6937C37.8562 82.2405 33.8672 87.3103 29.7204 92.1883C29.2197 92.7755 28.9596 93.6154 28.6028 94.3577C29.9579 94.4357 30.8551 94.134 31.7557 93.7974C34.4031 92.7997 37.0383 91.7479 39.7139 90.8236C41.6378 90.1621 43.7542 89.1661 45.4304 91.0053C46.9609 92.7068 46.1483 94.8351 45.5476 96.7896C44.7008 99.6208 43.8206 102.431 43.0264 105.267C42.8623 105.852 42.9736 106.516 42.9415 107.554C43.8908 106.905 44.4549 106.571 44.975 106.144C49.9029 102.136 54.801 98.0723 59.7764 94.1218C61.7168 92.5791 63.7537 91.134 65.8909 89.9282C68.6254 88.4093 70.9617 89.6591 71.4405 92.8656C71.7056 94.6566 71.5395 96.512 71.589 98.3352C71.6237 99.592 71.6936 100.852 71.7618 102.13C71.9827 102.222 72.1844 102.33 72.4054 102.422C89.3418 82.961 107.811 65.361 128.151 49.7779C127.875 46.6617 126.8 44.298 123.631 43.2326C121.353 42.4652 119.187 41.2849 117.05 40.1604C115.603 39.4026 114.149 38.5383 112.893 37.4635C110.935 35.7913 110.997 34.0849 112.952 32.4024C113.92 31.5602 115.031 30.8907 116.138 30.2562C118.784 28.7289 121.491 27.3132 124.105 25.765C124.819 25.3397 125.753 24.6708 125.875 23.9764C126.176 22.3637 126.044 20.6561 126.115 18.5091C95.6739 27.0782 67.7145 40.0713 42.0158 58.4733L41.9807 58.4699ZM130.615 5.24396C130.272 6.92328 129.947 8.05712 129.815 9.20958C129.271 14.1709 128.724 19.1496 128.285 24.1211C128.126 25.9065 127.477 27.2738 126.043 28.1768C123.473 29.8175 120.858 31.3832 118.257 32.9856C117.39 33.5197 116.521 34.0713 115.216 34.9162C116.451 35.6711 117.126 36.1778 117.87 36.5321C120.678 37.8451 123.461 39.2263 126.341 40.352C128.488 41.195 129.911 42.5507 130.618 44.8788C131.232 46.8979 132.009 48.8797 132.788 50.844C133.126 51.724 133.649 52.5161 134.378 53.9106C135.232 52.4395 135.816 51.5427 136.299 50.6007C137.726 47.8079 139.036 44.9508 140.514 42.1806C142.404 38.6382 143.885 38.1634 147.416 39.864C149.426 40.835 151.39 41.9076 153.421 42.8453C154.03 43.1336 154.773 43.1348 156.077 43.3668C154.792 40.0824 153.806 37.3566 152.653 34.7029C151.457 31.9392 151.773 29.4628 153.318 26.9109C155.034 24.0578 156.551 21.0795 158.1 18.122C158.429 17.4829 158.523 16.7152 158.853 15.5289C154.56 15.8026 150.727 15.9088 146.929 16.3716C145.227 16.5779 143.929 16.2759 142.675 15.1837C139.562 12.4818 136.428 9.81328 133.275 7.16051C132.573 6.56305 131.77 6.09698 130.578 5.25802L130.615 5.24396Z" fill="#1C1C1C"/>
</g>
<defs>
<clipPath id="clip0_56_253">
<rect width="234" height="172" fill="white"/>
</clipPath>
</defs>
</svg>
