<svg width="234" height="172" viewBox="0 0 234 172" fill="none" xmlns="http://www.w3.org/2000/svg">
<path d="M187.919 22.2733C186.215 14.7257 178.94 9.83452 171.73 8.08531C160.097 4.84604 147.972 6.23892 136.142 6.66003C120.741 8.47402 105.306 9.67248 89.9368 11.5513C78.4674 13.0413 67.162 16.2482 56.905 21.5606C51.8912 24.1196 48.0243 28.2659 44.5179 32.5094C36.7842 42.3244 34.5231 55.2492 35.0802 67.3964C35.7356 78.9283 36.7187 90.5248 39.6024 101.733C43.2727 115.953 46.5496 130.303 51.5961 144.102C53.9228 149.836 56.5444 155.926 61.8859 159.521C68.276 163.927 76.2064 165.061 83.7435 166H109.271C123.919 163.279 138.928 164.316 153.576 161.724C162.326 160.137 171.763 159.327 179.136 153.853C185.723 149.383 187.919 141.381 191.13 134.579C194.145 126.254 198.635 118.156 198.635 109.118C200.207 92.7275 196.242 76.6283 195.456 60.3347C194.833 47.3452 191.163 34.8093 187.919 22.2733ZM51.3341 35.4571C52.2189 29.8532 57.7242 26.8731 62.3447 24.476C67.1291 22.1438 72.1101 19.5199 77.6482 19.9087C90.6906 20.2002 103.373 16.4102 116.382 16.313C133.947 15.4708 151.675 11.4541 169.24 14.5962C174.614 15.5032 181.201 17.8355 182.577 23.7957C184.478 31.408 186.378 39.0528 188.017 46.7298C175.368 48.2847 163.046 51.7183 150.397 53.3379C137.912 55.4434 125.23 56.1237 112.712 58.1968C99.8006 60.2376 87.0203 63.1854 73.9452 64.3515C66.8669 64.967 59.8215 65.6796 52.8088 66.9429C51.7274 56.5124 49.4662 45.92 51.3341 35.4571ZM192.113 116.147C190.966 122.723 185.101 126.967 179.726 130.238C170.125 135.939 158.688 136.62 147.907 138.337C134.7 140.151 121.625 143.552 108.222 143.422C99.1452 143.131 90.0353 142.386 81.253 140.183C75.4199 138.887 72.1428 133.445 69.6523 128.586C60.9683 110.803 56.2823 91.367 53.5624 71.899C66.0477 70.1174 78.6969 69.6963 91.0839 67.2021C104.88 64.4811 118.676 61.4037 132.734 60.4643C151.642 59.0715 170.256 55.6702 188.804 52.0422C189.819 62.9262 190.18 73.875 191.949 84.6942C193.686 95.0922 193.784 105.749 192.113 116.147Z" fill="#1C1C1C"/>
<path d="M157.213 47.0861C161.67 46.2763 167.634 46.4059 170.125 41.9033C172.419 36.9472 171.337 31.0518 169.666 26.0957C167.7 22.1762 162.784 22.1761 159.081 23.0183C154.559 23.8282 149.939 24.3789 145.58 25.7717C143.712 26.2576 141.943 27.5857 141.746 29.6265C140.894 34.9065 140.796 41.0612 144.4 45.4342C147.612 49.1917 152.986 47.3453 157.213 47.0861ZM164.587 24.0873C165.668 28.9786 168.191 34.291 166.323 39.2795C160.883 42.8103 153.707 41.7413 147.513 42.4216C145.842 38.5344 145.088 34.291 145.285 30.1124C150.856 26.1604 158.295 26.4843 164.587 24.0873Z" fill="#1C1C1C"/>
<path d="M122.739 68.3357C117.693 69.3075 112.908 71.7369 109.435 75.5269C103.209 81.5519 101.374 90.46 100.62 98.7201C100.325 116.439 117.66 131.275 135.225 129.817C153.576 128.295 166.422 107.563 161.736 90.4276C158.295 73.8425 138.731 64.2542 122.739 68.3357ZM140.599 122.853C132.112 126.092 122.412 123.306 115.235 118.318C106.092 111.839 101.439 98.4934 106.748 88.3221C110.615 82.5885 115.759 77.0817 122.674 75.1058C130.309 72.9354 138.797 73.8425 145.711 77.8916C151.282 80.645 155.739 85.6982 156.951 91.8529C160.523 104.356 152.298 117.929 140.599 122.853Z" fill="#1C1C1C"/>
<path d="M66.7686 54.7632C68.6037 56.0589 70.4388 57.7434 72.9293 57.5815C82.6292 57.6786 92.1324 54.4717 100.784 50.3254C89.2487 49.1917 77.7792 51.5563 66.7686 54.7632Z" fill="#1C1C1C"/>
<path d="M83.3829 48.0903C89.5436 47.6368 95.8028 46.082 100.685 42.1949C93.2795 41.6766 85.7751 41.6118 78.6312 43.7173C73.4536 45.3046 67.7845 46.3735 63.7866 50.2606C70.4061 50.7465 76.8289 48.5114 83.3829 48.0903Z" fill="#1C1C1C"/>
<path d="M69.3247 40.802C79.385 40.4457 90.4283 39.9923 98.5225 33.2546C86.8237 32.7687 75.0594 34.5178 63.9832 38.2754C65.5561 39.4415 67.0635 41.2231 69.3247 40.802Z" fill="#1C1C1C"/>
</svg>
